<svg width="121" height="70" viewBox="0 0 121 70" fill="none" xmlns="http://www.w3.org/2000/svg">
<path fill-rule="evenodd" clip-rule="evenodd" d="M37.0311 36.0951C39.0627 36.0951 40.7099 37.9907 40.7099 40.328C40.7099 42.6653 39.0627 44.5609 37.0311 44.5609C34.9995 44.5609 33.3508 42.6653 33.3508 40.328C33.3508 37.9907 34.9995 36.0951 37.0311 36.0951Z" fill="#6EA030"/>
<path fill-rule="evenodd" clip-rule="evenodd" d="M43.2355 36.0951C45.2676 36.0951 46.9158 37.9907 46.9158 40.328C46.9158 42.6653 45.2676 44.5609 43.2355 44.5609C41.2039 44.5609 39.5557 42.6653 39.5557 40.328C39.5557 37.9907 41.2039 36.0951 43.2355 36.0951Z" fill="#6EA030"/>
<path fill-rule="evenodd" clip-rule="evenodd" d="M48.7669 37.0582C50.7985 37.0582 52.4472 38.7365 52.4472 40.8095C52.4472 42.881 50.7985 44.5614 48.7669 44.5614C46.7353 44.5614 45.0881 42.881 45.0881 40.8095C45.0881 38.7365 46.7353 37.0582 48.7669 37.0582Z" fill="#6EA030"/>
<path fill-rule="evenodd" clip-rule="evenodd" d="M43.5726 34.7965C45.6042 34.7965 47.2514 36.477 47.2514 38.5484C47.2514 40.6209 45.6042 42.2998 43.5726 42.2998C41.541 42.2998 39.8923 40.6209 39.8923 38.5484C39.8923 36.477 41.541 34.7965 43.5726 34.7965Z" fill="#6EA030"/>
<path fill-rule="evenodd" clip-rule="evenodd" d="M47.1469 36.0506C48.8748 36.0506 50.273 37.4789 50.273 39.2386C50.273 40.9997 48.8748 42.426 47.1469 42.426C45.421 42.426 44.0208 40.9992 44.0208 39.2386C44.0208 37.4789 45.421 36.0506 47.1469 36.0506Z" fill="#6EA030"/>
<path fill-rule="evenodd" clip-rule="evenodd" d="M40.2344 36.1001C41.9608 36.1001 43.3605 37.527 43.3605 39.2876C43.3605 41.0468 41.9608 42.4751 40.2344 42.4751C38.5069 42.4751 37.1067 41.0468 37.1067 39.2876C37.1067 37.5265 38.5069 36.1001 40.2344 36.1001Z" fill="#6EA030"/>
<path fill-rule="evenodd" clip-rule="evenodd" d="M39.8706 37.5111C41.5965 37.5111 42.9967 38.9379 42.9967 40.6986C42.9967 42.4582 41.5965 43.8851 39.8706 43.8851C38.1426 43.8851 36.7429 42.4582 36.7429 40.6986C36.7429 38.9374 38.1426 37.5111 39.8706 37.5111Z" fill="#6EA030"/>
<path fill-rule="evenodd" clip-rule="evenodd" d="M46.0671 38.119C47.793 38.119 49.1933 39.5458 49.1933 41.3065C49.1933 43.0676 47.793 44.494 46.0671 44.494C44.3392 44.494 42.9395 43.0671 42.9395 41.3065C42.9395 39.5453 44.3392 38.119 46.0671 38.119Z" fill="#6EA030"/>
<path fill-rule="evenodd" clip-rule="evenodd" d="M77.1214 0C65.1444 2.7872 53.1679 5.57436 41.193 8.36003C41.193 9.59362 41.193 10.8288 41.193 12.0608C41.193 16.9461 41.193 21.8314 41.193 26.7156C41.193 27.4947 41.193 28.2723 41.193 29.0498C77.1214 27.4788 41.193 29.0499 77.1214 27.4789C81.386 28.258 85.6502 29.0386 89.9153 29.8193C89.9153 30.4087 89.9153 30.9976 89.9153 31.585C89.3688 31.4853 88.8229 31.3851 88.2764 31.2844C88.2764 35.5899 88.2764 39.896 88.2764 44.2016C89.1173 44.2016 89.9578 44.2016 90.8003 44.2016C91.2057 44.2016 91.6095 44.2016 92.0149 44.2016C92.0149 36.5761 92.0149 28.9512 92.0149 21.3278C92.3442 21.3278 92.6724 21.3278 93.0011 21.3278C93.0011 28.9512 93.0011 36.5761 93.0011 44.2016C93.2705 44.2016 93.5379 44.2016 93.8073 44.2016C93.8073 37.3143 93.8073 30.4271 93.8073 23.5404C94.1381 23.5404 94.4693 23.5404 94.8021 23.5404C94.8021 30.4271 94.8021 37.3143 94.8021 44.2016C95.3486 44.2016 95.8946 44.2016 96.4422 44.2016C103.782 44.2016 111.122 44.2016 118.464 44.2016C117.349 43.8974 116.234 43.5952 115.119 43.2905C115.119 42.512 115.119 41.7323 115.119 40.9532C115.114 40.9532 115.111 40.9532 115.106 40.9532C115.149 40.2079 115.17 39.3127 115.17 38.2468C115.17 33.2598 114.436 29.8949 114.001 29.8949C113.565 29.8949 112.706 33.3534 112.706 38.3398C112.706 38.4176 112.706 38.4953 112.706 38.5745C112.386 38.1676 111.968 37.9216 111.51 37.9216C111.124 37.9216 110.766 38.096 110.473 38.392C110.492 37.7156 110.501 36.9652 110.501 36.1354C110.501 29.649 109.583 25.2719 109.038 25.2719C108.514 25.2719 107.5 29.4149 107.42 35.4816C107.097 35.2725 106.74 35.1554 106.363 35.1554C106.178 35.1554 105.997 35.184 105.824 35.2377C105.831 34.7377 105.836 34.2102 105.836 33.656C105.836 25.1743 104.444 19.4531 103.619 19.4531C102.794 19.4531 101.162 25.3348 101.162 33.8145C101.162 37.0817 101.333 39.3715 101.616 40.9532C100.09 40.9532 98.5612 40.9532 97.0347 40.9532C97.0347 38.2361 97.0347 35.5169 97.0347 32.7997C97.7626 32.8309 98.4932 32.8631 99.2232 32.8963C99.2217 31.5436 99.2201 30.1929 99.2181 28.8423C98.1619 28.3168 97.1042 27.7922 96.048 27.2682C96.048 26.3041 96.0495 25.3394 96.0495 24.3752C97.1154 24.3803 98.1793 24.3834 99.2452 24.388C99.2452 23.7306 99.2452 23.0736 99.2452 22.4182C96.1354 20.2041 93.0251 17.9905 89.9148 15.7784C89.9148 14.9533 89.9148 14.1267 89.9148 13.3015C85.6497 8.86717 81.3855 4.43383 77.1209 0.000998487L77.1214 0ZM84.2141 11.0138V26.4952L89.9153 28.2544C89.9153 25.4421 89.9153 22.6294 89.9153 19.8151C89.9153 18.5564 89.9153 17.2973 89.9153 16.0397L84.2141 11.0133V11.0138ZM83.0123 26.1231V9.95252L77.6347 5.20986V24.4616L83.0123 26.1231ZM76.4313 24.3491V4.89958L67.0891 6.79825V24.9779L76.4313 24.3491ZM65.8857 25.0587V7.04213L53.9516 9.4684V25.8603L65.8857 25.0592V25.0587ZM52.7498 25.9406V9.71173L43.5968 11.5726C43.5968 16.5658 43.5968 21.5604 43.5968 26.5556L52.7498 25.9411V25.9406ZM8.9173 20.6213C10.0655 20.6213 12.002 26.0735 12.002 34.1544C12.002 34.5169 11.999 34.8671 11.9939 35.206C12.5327 35.206 13.071 35.206 13.6093 35.206C13.5265 33.9376 13.4841 32.5027 13.4841 30.878C13.4841 20.0002 16.2473 12.456 17.6444 12.456C19.0426 12.456 21.3989 19.7956 21.3989 30.675C21.3989 31.0048 21.3968 31.3289 21.3938 31.6443C27.4226 29.7456 33.4531 27.8454 39.4835 25.9467C39.4835 28.9711 39.4835 31.9945 39.4835 35.0194C39.1972 35.07 38.9227 35.1493 38.6604 35.2551C38.3291 35.1253 37.9774 35.0332 37.6073 34.9862C37.6073 32.5681 37.6073 30.151 37.6073 27.7329C36.0122 28.2365 34.4177 28.7421 32.8217 29.2451C32.8217 31.8406 32.8217 34.4381 32.8217 37.0336C32.9546 37.0336 33.0875 37.0336 33.221 37.0336C33.0737 37.2489 32.9403 37.4738 32.8217 37.7095C32.8186 37.7156 32.8155 37.7238 32.8125 37.7299C32.8094 37.7361 32.8064 37.7412 32.8043 37.7473C32.7982 37.7565 32.7931 37.7678 32.7885 37.779C32.7864 37.7805 32.7854 37.7821 32.7854 37.7836C32.7793 37.7964 32.7742 37.8092 32.768 37.822C32.766 37.8251 32.766 37.8265 32.765 37.8281C32.7598 37.8393 32.7557 37.8501 32.7506 37.8593C32.7476 37.8659 32.7445 37.8705 32.7414 37.8767C32.7384 37.8828 32.7353 37.891 32.7322 37.8971C32.7292 37.9063 32.724 37.916 32.7194 37.9257C32.7174 37.9288 32.7174 37.9334 32.7143 37.9365C32.7092 37.9492 32.7051 37.962 32.6985 37.9748C32.6985 37.9748 32.6985 37.9748 32.6964 37.9768C32.6918 37.9896 32.6873 38.0004 32.6806 38.0131C32.6786 38.0177 32.6775 38.0208 32.6755 38.0259C32.6709 38.0351 32.6678 38.0433 32.6648 38.053C32.6617 38.0612 32.6581 38.0689 32.6535 38.077C32.6515 38.0816 32.6504 38.0863 32.6484 38.0914C32.6438 38.1042 32.6376 38.1149 32.6346 38.1277C32.6325 38.1277 32.6325 38.1292 32.6325 38.1308C32.6274 38.1435 32.6213 38.1558 32.6167 38.1686C32.6147 38.1716 32.6136 38.1752 32.6136 38.1783C32.6085 38.1875 32.6055 38.1987 32.6009 38.2084C32.5993 38.2146 32.5962 38.2212 32.5932 38.2289C32.5911 38.2356 32.5881 38.2417 32.587 38.2483C32.5819 38.2591 32.5789 38.2688 32.5743 38.2795C32.5743 38.2826 32.5727 38.2846 32.5712 38.2877C32.5666 38.3005 32.562 38.3148 32.5574 38.3271C32.5574 38.3291 32.5574 38.3301 32.5553 38.3301C32.5523 38.3429 32.5477 38.3541 32.5426 38.3664C32.5405 38.3715 32.5395 38.3777 32.5374 38.3828C32.5344 38.3905 32.5313 38.3986 32.5298 38.4068C32.5247 38.416 32.5236 38.4257 32.5185 38.4349C32.5185 38.438 32.5165 38.4431 32.5155 38.4462C32.5104 38.4605 32.5063 38.4733 32.5027 38.4855C32.5027 38.4855 32.5007 38.4855 32.5007 38.4871C32.4976 38.4999 32.493 38.5126 32.4879 38.527C32.4858 38.5316 32.4858 38.5346 32.4848 38.5377C32.4817 38.5474 32.4787 38.5581 32.4756 38.5679C32.4725 38.5745 32.4705 38.5821 32.4694 38.5903C32.4664 38.5965 32.4644 38.601 32.4633 38.6077C32.4598 38.6184 32.4567 38.6318 32.4536 38.6425C32.4521 38.6445 32.4521 38.6456 32.4521 38.6486C32.447 38.6614 32.4429 38.6757 32.4393 38.6885C32.4393 38.69 32.4373 38.6931 32.4373 38.6946C32.4342 38.7053 32.4311 38.7187 32.428 38.7294C32.425 38.7355 32.4229 38.7422 32.4219 38.7468C32.4199 38.755 32.4188 38.7626 32.4158 38.7708C32.4127 38.78 32.4107 38.7912 32.4076 38.8009C32.4076 38.804 32.4061 38.8071 32.4045 38.8101C32.4015 38.8245 32.3984 38.8388 32.3953 38.8516C32.3933 38.8531 32.3933 38.8531 32.3933 38.8531C32.3902 38.8674 32.3871 38.8802 32.3841 38.893C32.3825 38.8976 32.381 38.9022 32.381 38.9068C32.3779 38.9165 32.3764 38.9242 32.3749 38.9339C32.3718 38.9431 32.3698 38.9512 32.3688 38.961C32.3667 38.9661 32.3657 38.9702 32.3636 38.9753C32.3606 38.9881 32.3575 39.0024 32.3544 39.0136C32.3544 39.0152 32.3544 39.0167 32.3544 39.0167C32.3514 39.031 32.3483 39.0448 32.3452 39.0591C32.3452 39.0622 32.3432 39.0642 32.3432 39.0673C32.3401 39.078 32.3386 39.0893 32.3355 39.1005C32.3355 39.1067 32.3325 39.1143 32.3325 39.121C32.3304 39.1271 32.3294 39.1348 32.3273 39.1414C32.3243 39.1527 32.3227 39.1639 32.3212 39.1752C32.3197 39.1782 32.3197 39.1798 32.3197 39.1828C32.3161 39.1971 32.313 39.2115 32.31 39.2253C32.31 39.2273 32.31 39.2273 32.31 39.2284C32.3069 39.2411 32.3054 39.2539 32.3038 39.2667C32.3023 39.2728 32.3007 39.2779 32.2992 39.2841C32.2992 39.2922 32.2972 39.2999 32.2962 39.3091C32.2941 39.3188 32.2931 39.3285 32.291 39.3377C32.289 39.3408 32.288 39.3459 32.288 39.3505C32.2849 39.3648 32.2829 39.3776 32.2818 39.392C32.2788 39.4063 32.2767 39.4201 32.2736 39.4344C32.2736 39.4375 32.2737 39.4426 32.2721 39.4472C32.2701 39.4564 32.2691 39.4666 32.267 39.4758C32.267 39.485 32.2655 39.4932 32.2639 39.5008C32.2639 39.507 32.2624 39.5121 32.2609 39.5182C32.2609 39.531 32.2578 39.5438 32.2558 39.5545C32.2558 39.5566 32.2558 39.5596 32.2558 39.5606C32.2542 39.575 32.2527 39.5893 32.2512 39.602C32.2491 39.6051 32.2491 39.6082 32.2491 39.6102C32.2476 39.623 32.246 39.6342 32.2445 39.645C32.2445 39.6511 32.2425 39.6593 32.2425 39.6654C32.2409 39.6716 32.2409 39.6798 32.2394 39.688C32.2394 39.6987 32.2379 39.7099 32.2363 39.7191C32.2363 39.7242 32.2363 39.7273 32.2348 39.7303C32.2328 39.7447 32.2328 39.7585 32.2312 39.7728C32.2312 39.7728 32.2297 39.7728 32.2297 39.7748C32.2297 39.7876 32.2276 39.8019 32.2266 39.8142C32.2266 39.8204 32.2266 39.8249 32.2246 39.83C32.2246 39.8392 32.223 39.849 32.223 39.8572C32.221 39.8664 32.221 39.876 32.22 39.8858C32.22 39.8904 32.22 39.895 32.22 39.8996C32.2179 39.9139 32.2169 39.9267 32.2169 39.9389C32.2169 39.941 32.2169 39.941 32.2169 39.9425C32.2149 39.9563 32.2149 39.9706 32.2138 39.985C32.2138 39.988 32.2138 39.9911 32.2138 39.9941C32.2118 40.0054 32.2118 40.0161 32.2118 40.0274C32.2103 40.0356 32.2103 40.0432 32.2103 40.0494C32.2103 40.0575 32.2103 40.0637 32.2082 40.0698C32.2082 40.0811 32.2082 40.0938 32.2082 40.1046C32.2067 40.1076 32.2067 40.1092 32.2067 40.1128C32.2067 40.1266 32.2067 40.1409 32.2047 40.1552C32.2047 40.1567 32.2047 40.1583 32.2047 40.1598C32.2047 40.1726 32.2047 40.1854 32.2047 40.1981C32.2047 40.2043 32.2047 40.2109 32.2047 40.2155C32.2031 40.2232 32.2031 40.2329 32.2031 40.2406C32.2031 40.2498 32.2031 40.261 32.2031 40.2707C32.2031 40.2758 32.2031 40.2789 32.2031 40.2835C32.2031 40.2973 32.2031 40.3116 32.2031 40.3259C32.2031 40.3403 32.2031 40.3541 32.2031 40.3684C32.2031 40.3766 32.2031 40.3842 32.2031 40.3934C32.2031 40.3985 32.2031 40.4047 32.2031 40.4108C32.2031 40.4251 32.2047 40.4394 32.2047 40.4537C32.2047 40.4568 32.2047 40.4584 32.2047 40.4599C32.2047 40.4727 32.2047 40.4849 32.2047 40.4962C32.2047 40.5069 32.2067 40.5166 32.2067 40.5274C32.2067 40.5305 32.2067 40.5355 32.2067 40.5386C32.2082 40.5529 32.2082 40.5672 32.2082 40.5811C32.2082 40.5862 32.2103 40.5903 32.2103 40.5938C32.2103 40.6051 32.2103 40.6143 32.2118 40.6245C32.2118 40.6373 32.2118 40.6495 32.2138 40.6623C32.2138 40.6644 32.2138 40.6654 32.2138 40.6674C32.2154 40.6817 32.2154 40.6955 32.2169 40.7099C32.2169 40.716 32.2169 40.7226 32.2185 40.7288C32.2185 40.737 32.2185 40.7451 32.2205 40.7528C32.2205 40.7671 32.222 40.7815 32.2235 40.7958C32.2235 40.7958 32.2235 40.7957 32.2235 40.7973C32.2251 40.8101 32.2251 40.8244 32.2266 40.8387C32.2282 40.8464 32.2282 40.8546 32.2297 40.8638C32.2297 40.8689 32.2297 40.875 32.2312 40.8811C32.2333 40.8955 32.2333 40.9082 32.2348 40.9236C32.2363 40.9256 32.2363 40.9287 32.2363 40.9297C32.2363 40.9425 32.2384 40.9537 32.2394 40.9645C32.2414 40.9757 32.2425 40.9865 32.2425 40.9962C32.2445 41.0008 32.2445 41.0038 32.2445 41.0069C32.246 41.0212 32.2476 41.0355 32.2507 41.0493C32.2507 41.0545 32.2506 41.0575 32.2522 41.0636C32.2522 41.0718 32.2542 41.081 32.2553 41.0907C32.2573 41.105 32.2583 41.1178 32.2604 41.1291C32.2604 41.1306 32.2604 41.1321 32.2604 41.1337C32.2634 41.148 32.2655 41.1623 32.2665 41.1766C32.2686 41.1827 32.2686 41.1894 32.2696 41.1955C32.2716 41.2037 32.2726 41.2114 32.2726 41.2175C32.2757 41.2319 32.2777 41.2462 32.2808 41.2605V41.262C32.2823 41.2763 32.2854 41.2891 32.287 41.3014C32.2885 41.3111 32.29 41.3188 32.2921 41.3285C32.2921 41.3336 32.2936 41.3397 32.2951 41.3448C32.2967 41.3586 32.2997 41.373 32.3028 41.3857C32.3028 41.3888 32.3028 41.3918 32.3028 41.3939C32.3059 41.4051 32.3079 41.4179 32.3089 41.4287C32.312 41.4394 32.314 41.4491 32.3151 41.4598C32.3171 41.4629 32.3171 41.466 32.3187 41.4691C32.3202 41.4834 32.3232 41.4977 32.3263 41.5104C32.3284 41.5166 32.3284 41.5197 32.3294 41.5248C32.3314 41.534 32.3325 41.5437 32.3345 41.5529C32.3376 41.5641 32.3406 41.5784 32.3437 41.5912C32.3437 41.5912 32.3437 41.5933 32.3437 41.5943C32.3468 41.6071 32.3498 41.6214 32.3529 41.6357C32.3549 41.6418 32.356 41.6485 32.358 41.6562C32.3596 41.6623 32.3611 41.6699 32.3626 41.6766C32.3657 41.6909 32.3688 41.7037 32.3739 41.718C32.3739 41.7201 32.3739 41.7201 32.3739 41.7211C32.3769 41.7339 32.38 41.7466 32.3831 41.7594C32.3861 41.7737 32.3892 41.7865 32.3943 41.8008C32.3974 41.8146 32.4004 41.8279 32.4035 41.8417C32.4055 41.8448 32.4055 41.8469 32.4066 41.8499C32.4086 41.8612 32.4117 41.8719 32.4148 41.8831C32.4178 41.8923 32.4209 41.9036 32.424 41.9148C32.424 41.9179 32.4255 41.921 32.427 41.9225C32.4301 41.9368 32.4332 41.9511 32.4383 41.9639C32.4398 41.969 32.4413 41.9731 32.4429 41.9782C32.4459 41.9874 32.448 41.9956 32.4511 42.0053C32.4541 42.0181 32.4572 42.0304 32.4623 42.0431V42.0452C32.4669 42.0595 32.47 42.0723 32.4751 42.0866C32.4766 42.0928 32.4797 42.1004 32.4812 42.107C32.4843 42.1132 32.4858 42.1198 32.4873 42.126C32.4925 42.1403 32.4965 42.1531 32.5001 42.1674C32.5022 42.1689 32.5022 42.1689 32.5022 42.1704C32.5068 42.1832 32.5098 42.1945 32.515 42.2067C32.518 42.2159 32.5211 42.2241 32.5231 42.2338C32.5247 42.2384 32.5262 42.2415 32.5293 42.2466C32.5323 42.2594 32.5385 42.2737 32.542 42.286C32.5436 42.289 32.5451 42.2921 32.5451 42.2952C32.5502 42.3064 32.5533 42.3156 32.5564 42.3254C32.561 42.3366 32.564 42.3478 32.5691 42.3586C32.5691 42.3606 32.5707 42.3637 32.5707 42.3652C32.5773 42.379 32.5804 42.3923 32.587 42.4046C32.5886 42.4107 32.5901 42.4153 32.5916 42.4204C32.5947 42.4286 32.5978 42.4363 32.6009 42.4445C32.606 42.4573 32.6106 42.4695 32.6172 42.4828V42.4843C32.6218 42.4971 32.6279 42.5099 32.6331 42.5237C32.6361 42.5298 32.6382 42.5365 32.6412 42.5441C32.6443 42.5503 32.6458 42.5554 32.6489 42.5616C32.654 42.5743 32.6601 42.5886 32.6653 42.6009C32.6653 42.6029 32.6668 42.6029 32.6668 42.606C32.6719 42.6167 32.676 42.628 32.6811 42.6392C32.6872 42.652 32.6923 42.6643 32.6985 42.6776C32.7046 42.6904 32.7092 42.7027 32.7143 42.717C32.7174 42.72 32.7174 42.7231 32.7205 42.7262C32.7235 42.7354 32.7287 42.7451 32.7317 42.7543C32.7363 42.7655 32.7424 42.7747 32.7476 42.786C32.7476 42.7875 32.7496 42.7911 32.7506 42.7921C32.7557 42.8049 32.7619 42.8172 32.768 42.8304C32.7742 42.8432 32.7793 42.8555 32.7854 42.8683C32.7915 42.8811 32.7982 42.8938 32.8043 42.9051C32.8043 42.9066 32.8043 42.9066 32.8043 42.9066C32.8105 42.9194 32.8156 42.9307 32.8217 42.9429C33.0512 43.402 33.3391 43.8268 33.68 44.199C33.3948 44.199 33.108 44.199 32.8217 44.199C32.4367 44.199 32.0518 44.199 31.6673 44.199C30.4813 44.199 29.2948 44.199 28.1087 44.199C27.7238 44.199 27.3393 44.199 26.9528 44.199C25.3742 44.199 23.795 44.199 22.2163 44.199C21.9837 44.199 21.7496 44.199 21.5164 44.199C20.6279 44.199 19.7379 44.199 18.8494 44.199C18.4471 44.199 18.0468 44.199 17.6444 44.199C14.7351 44.199 11.8262 44.199 8.91679 44.199C7.77829 44.199 6.63827 44.199 5.49926 44.199C4.37661 44.199 3.25395 44.199 2.13232 44.199C3.25344 43.8933 4.3761 43.5876 5.49926 43.2819C5.49926 40.5897 5.49926 37.8961 5.49926 35.204C5.5013 35.204 5.50437 35.204 5.50539 35.204C5.50079 34.9126 5.49926 34.613 5.49926 34.3032C5.49926 26.2238 7.77011 20.6193 8.91679 20.6193L8.9173 20.6213ZM21.2884 35.2065C21.5972 35.2065 21.9075 35.2065 22.2163 35.2065C22.2163 35.8149 22.2163 36.4243 22.2163 37.0342C23.795 37.0342 25.3742 37.0342 26.9528 37.0342C26.9528 35.0562 26.9528 33.0768 26.9528 31.0988C25.0935 31.6862 23.2347 32.2737 21.3754 32.861C21.3564 33.7005 21.3278 34.4796 21.2884 35.2065ZM28.1087 30.7343C29.2948 30.3591 30.4813 29.9854 31.6673 29.6101C31.6673 32.0855 31.6673 34.5588 31.6673 37.0342C30.4813 37.0342 29.2948 37.0342 28.1087 37.0342C28.1087 34.9341 28.1087 32.8344 28.1087 30.7343ZM41.5217 30.7313C41.9368 30.7124 42.3519 30.6934 42.7665 30.673C42.7665 31.6877 42.7665 32.7036 42.7665 33.7184C42.3187 33.794 41.8939 33.9336 41.4982 34.1237C41.5059 32.9929 41.5141 31.8621 41.5217 30.7313ZM43.5666 30.6346C44.6167 30.5855 45.6667 30.535 46.7163 30.4859C46.7163 31.9347 46.7163 33.3835 46.7163 34.8323C45.8748 34.0977 44.7813 33.6494 43.5728 33.6494C43.5707 33.6494 43.5677 33.6494 43.5666 33.6494C43.5666 32.6458 43.5666 31.6397 43.5666 30.6341V30.6346ZM48.1114 30.4194C49.2014 30.3693 50.2923 30.3166 51.3833 30.266C51.3833 32.407 51.3833 34.5496 51.3833 36.6926C50.9886 36.4345 50.553 36.2315 50.0893 36.0976C49.5475 35.5746 48.8696 35.1932 48.1109 35.0158C48.1109 33.4847 48.1109 31.9531 48.1109 30.42L48.1114 30.4194ZM54.4128 30.1219C60.617 29.829 66.8218 29.5345 73.026 29.2415C73.026 34.2285 73.026 39.2151 73.026 44.2021C71.9601 44.2021 70.8947 44.2021 69.8283 44.2021C69.8283 40.1276 69.8283 36.0511 69.8283 31.9766C65.7875 32.0906 61.7473 32.2046 57.7076 32.3186C57.7076 36.2791 57.7076 40.2401 57.7076 44.2021C56.6085 44.2021 55.5114 44.2021 54.4123 44.2021C54.4123 39.508 54.4123 34.816 54.4123 30.1219H54.4128ZM84.9079 30.5544C82.4315 30.1178 79.9541 29.6787 77.4762 29.2421C77.4762 34.2291 77.4762 39.2156 77.4762 44.2026C79.9546 44.2026 82.4315 44.2026 84.9079 44.2026C84.9079 39.6527 84.9079 35.1048 84.9079 30.5549V30.5544Z" fill="black"/>
<path fill-rule="evenodd" clip-rule="evenodd" d="M108.982 30.7313L107.737 30.673V33.7183C108.185 33.794 108.61 33.9336 109.005 34.1237L108.981 30.7313H108.982Z" fill="black"/>
<path fill-rule="evenodd" clip-rule="evenodd" d="M9.52362 48.938H14.6231V51.8725V66.014H9.52362V51.8725H5.09947V66.014H0V51.8725V48.938H5.09947H9.52362Z" fill="black"/>
<path fill-rule="evenodd" clip-rule="evenodd" d="M18.5679 48.938H23.6653H27.7024H27.7689C30.1712 48.938 32.1317 50.8986 32.1317 53.3029V55.3979C32.1317 57.8017 30.1712 59.7607 27.7689 59.7607H27.7024H23.6653V66.014H18.5679V59.7607V57.4044V51.8725V48.938ZM23.6653 51.8725V57.4044H25.5195C26.7214 57.4044 27.7019 56.4239 27.7019 55.2235V54.0549C27.7019 52.853 26.7214 51.8725 25.5195 51.8725H23.6653Z" fill="black"/>
<path fill-rule="evenodd" clip-rule="evenodd" d="M46.6845 50.3475C48.3174 51.9057 48.688 55.2803 48.6926 57.4719C48.688 59.665 48.3174 63.0417 46.6815 64.5999C44.6054 66.5763 38.1553 66.5809 36.0807 64.605C34.4402 63.0432 34.068 59.6722 34.0649 57.4719C34.068 55.2772 34.4402 51.9072 36.0746 50.3459C38.1491 48.3619 44.6105 48.3649 46.6845 50.348V50.3475ZM44.3171 57.4719C44.315 55.1581 44.0257 52.1133 41.3888 52.1133C38.7314 52.1133 38.4415 55.1238 38.44 57.4719C38.44 59.8113 38.7314 62.8306 41.3826 62.8306C44.0257 62.8306 44.315 59.7964 44.3171 57.4719Z" fill="black"/>
<path fill-rule="evenodd" clip-rule="evenodd" d="M73.0148 48.938H78.1123V51.8725V63.0795H80.491V66.014V70H76.9323V66.014C72.9243 66.014 68.9148 66.014 64.9063 66.014V70H61.3477V66.014V63.0795H63.9702C64.3266 61.4881 64.6768 59.8951 64.9094 58.3006C65.1706 56.5128 65.3311 54.7276 65.4783 52.945C65.6649 50.6741 67.5493 48.938 69.8268 48.938H70.0497H70.0661H70.0819H70.0993H70.1167H70.1336H70.1509H70.1668H70.1842H70.2016H70.2189H70.2348H70.2522H70.2696H70.2869H70.3038H70.3202H70.337H70.3544H70.3718H70.3876H70.405H70.4224H70.4398H70.4556H70.473H70.4904H70.5063H70.5236H70.5405H70.5579H70.5753H70.5911H70.6085H70.6259H70.6432H70.6606H70.6765H70.6939H70.7107H70.7281H70.7455H70.7613H70.7787H70.7961H70.8135H70.8293H70.8467H70.8641H70.881H70.8973H70.9147H73.0113H73.0148ZM69.0702 63.0795H73.0148V51.8725H71.6693C71.0993 51.8725 70.6289 52.3065 70.5814 52.875C70.4311 54.698 70.268 56.5221 70.0017 58.3477C69.7706 59.9268 69.4255 61.5039 69.0707 63.0795H69.0702Z" fill="black"/>
<path fill-rule="evenodd" clip-rule="evenodd" d="M115.861 48.938H118.778C119.98 48.938 120.96 49.9186 120.96 51.1205V52.5284V66.014H115.861V52.9639C115.861 52.7231 115.666 52.5284 115.426 52.5284H115.223C115.006 52.5284 114.823 52.6832 114.792 52.8985L113.616 60.7233C113.454 61.7969 112.545 62.5806 111.459 62.5806H109.027C107.939 62.5806 107.029 61.7984 106.868 60.7233L105.692 52.8985C105.66 52.6832 105.478 52.5284 105.261 52.5284H105.058C104.819 52.5284 104.622 52.7231 104.622 52.9639V66.014H99.5234V52.5284V51.1205C99.5234 49.9186 100.504 48.938 101.705 48.938H104.622H106.184C107.271 48.938 108.179 49.7202 108.341 50.7953L109.588 59.0884C109.636 59.4099 109.907 59.6446 110.232 59.6461H110.248C110.575 59.6461 110.847 59.412 110.895 59.0884L112.143 50.7953C112.304 49.7202 113.213 48.938 114.299 48.938H115.861H115.861Z" fill="black"/>
<path fill-rule="evenodd" clip-rule="evenodd" d="M54.0118 54.1485L54.1038 54.0565C54.5296 53.6306 55.2213 53.6306 55.6462 54.0565L59.2978 57.7081C59.7237 58.133 59.7237 58.8262 59.2978 59.2505L55.6462 62.9022C55.2213 63.3271 54.5296 63.3271 54.1038 62.9022L54.0118 62.8087C53.5859 62.3843 53.5859 61.6922 54.0118 61.2663L56.4902 58.7879C56.6615 58.6166 56.6615 58.341 56.4902 58.1703L54.0118 55.6909C53.5859 55.266 53.5859 54.5728 54.0118 54.1485Z" fill="#6EA030"/>
<path fill-rule="evenodd" clip-rule="evenodd" d="M94.4476 50.3475C96.0789 51.9057 96.4511 55.2803 96.4541 57.4719C96.4511 59.665 96.0789 63.0417 94.4429 64.5999C92.3684 66.5763 85.9183 66.5809 83.8422 64.605C82.2032 63.0432 81.8295 59.6722 81.8264 57.4719C81.8295 55.2772 82.2017 51.9072 83.836 50.3459C85.9106 48.3619 92.3715 48.3649 94.4476 50.348V50.3475ZM92.0785 57.4719C92.0785 55.1581 91.7871 52.1133 89.1518 52.1133C86.4929 52.1133 86.2035 55.1238 86.2015 57.4719C86.2035 59.8113 86.4929 62.8306 89.1441 62.8306C91.7871 62.8306 92.0785 59.7964 92.0785 57.4719Z" fill="black"/>
</svg>
